<svg width="22" height="18" viewBox="0 0 22 18" fill="none" xmlns="http://www.w3.org/2000/svg">
<path d="M18.0957 17.9785L9.61914 17.9688C9.23503 17.9688 8.87044 17.9264 8.52539 17.8418C8.18685 17.7637 7.86133 17.6367 7.54883 17.4609C7.24284 17.2852 6.95638 17.0573 6.68945 16.7773L0.927734 10.8301C0.608724 10.498 0.374349 10.1823 0.224609 9.88281C0.0748698 9.57682 0 9.27409 0 8.97461C0 8.76628 0.0325521 8.56445 0.0976562 8.36914C0.16276 8.16732 0.263672 7.96224 0.400391 7.75391C0.537109 7.54557 0.712891 7.33398 0.927734 7.11914L6.67969 1.14258C6.94661 0.86263 7.23307 0.638021 7.53906 0.46875C7.85156 0.299479 8.17708 0.179036 8.51562 0.107422C8.86068 0.0358073 9.22526 0 9.60938 0H18.0957C19.1178 0 19.8828 0.253906 20.3906 0.761719C20.9049 1.26302 21.1621 2.01823 21.1621 3.02734V14.9512C21.1621 15.9603 20.9049 16.7155 20.3906 17.2168C19.8828 17.7246 19.1178 17.9785 18.0957 17.9785ZM18.0762 16.4062C18.5645 16.4062 18.9388 16.2793 19.1992 16.0254C19.4596 15.765 19.5898 15.3809 19.5898 14.873V3.10547C19.5898 2.59766 19.4596 2.2168 19.1992 1.96289C18.9388 1.70247 18.5645 1.57227 18.0762 1.57227H9.58008C9.21549 1.57227 8.89974 1.61458 8.63281 1.69922C8.3724 1.78385 8.11523 1.95638 7.86133 2.2168L2.14844 8.14453C1.86198 8.45703 1.71875 8.73372 1.71875 8.97461C1.71875 9.09831 1.74805 9.22526 1.80664 9.35547C1.87174 9.47917 1.98568 9.62565 2.14844 9.79492L7.87109 15.7031C8.125 15.9635 8.38216 16.1458 8.64258 16.25C8.90299 16.3542 9.21875 16.4062 9.58984 16.4062H18.0762ZM9.04297 13.1152C8.82812 13.1152 8.64258 13.0371 8.48633 12.8809C8.33659 12.7246 8.26172 12.5391 8.26172 12.3242C8.26172 12.1094 8.33984 11.9271 8.49609 11.7773L11.2695 8.99414L8.49609 6.21094C8.33984 6.0612 8.26172 5.87891 8.26172 5.66406C8.26172 5.44922 8.33659 5.26693 8.48633 5.11719C8.64258 4.96745 8.82812 4.89258 9.04297 4.89258C9.26432 4.89258 9.44661 4.9707 9.58984 5.12695L12.373 7.90039L15.1855 5.11719C15.3418 4.95443 15.5208 4.87305 15.7227 4.87305C15.9375 4.87305 16.1198 4.95117 16.2695 5.10742C16.4258 5.25716 16.5039 5.43945 16.5039 5.6543C16.5039 5.86263 16.4258 6.04492 16.2695 6.20117L13.4863 8.99414L16.2598 11.7676C16.416 11.9238 16.4941 12.1094 16.4941 12.3242C16.4941 12.5391 16.416 12.7246 16.2598 12.8809C16.11 13.0371 15.9277 13.1152 15.7129 13.1152C15.498 13.1152 15.3125 13.0339 15.1562 12.8711L12.373 10.0977L9.60938 12.8711C9.45964 13.0339 9.27083 13.1152 9.04297 13.1152Z" fill="black"/>
</svg>
